<svg xmlns="http://www.w3.org/2000/svg" width="256" height="256" viewBox="0 0 256 256" fill="none">
  <defs>
    <linearGradient id="bg" x1="36" y1="26" x2="212" y2="230" gradientUnits="userSpaceOnUse">
      <stop stop-color="#FF62CF"/>
      <stop offset="0.5" stop-color="#8A46FF"/>
      <stop offset="1" stop-color="#F5EFFF"/>
    </linearGradient>
    <linearGradient id="stroke" x1="62" y1="62" x2="196" y2="196" gradientUnits="userSpaceOnUse">
      <stop stop-color="#FFF7FF" stop-opacity="0.96"/>
      <stop offset="1" stop-color="#F4D9FF" stop-opacity="0.7"/>
    </linearGradient>
    <filter id="shadow" x="0" y="0" width="256" height="256" filterUnits="userSpaceOnUse" color-interpolation-filters="sRGB">
      <feDropShadow dx="0" dy="18" stdDeviation="18" flood-color="#9B5CFF" flood-opacity="0.28"/>
    </filter>
  </defs>
  <rect width="256" height="256" rx="72" fill="#FFF9F2"/>
  <g filter="url(#shadow)">
    <rect x="24" y="24" width="208" height="208" rx="60" fill="url(#bg)"/>
  </g>
  <circle cx="61" cy="70" r="28" fill="#FFF7FC" fill-opacity="0.28"/>
  <path d="M72 176V82h18l38 50 38-50h18v94h-20v-61l-31 40h-10l-31-40v61H72Z" fill="url(#stroke)"/>
  <path d="M157 176c0-13.255 10.745-24 24-24h5c0 13.255-10.745 24-24 24h-5Z" fill="#FFF8FF" fill-opacity="0.96"/>
</svg>
